<svg xmlns="http://www.w3.org/2000/svg" xmlns:xlink="http://www.w3.org/1999/xlink" version="1.1" width="2284.876pt" height="2284.876pt" viewBox="0 0 2284.876 2284.876">
<path transform="matrix(4,0,0,-4,0,2284.876)" d="M107.881 215.312H84.1641V209.339H91.9084V181.351H99.7445V209.339H107.048Z"/>
<path transform="matrix(4,0,0,-4,0,2284.876)" d="M122.193 208.107C119.399 208.107 117.243 206.148 116.067 202.769L115.479 207.372H108.916V181.351H116.458V194.876C117.194 198.408 118.321 200.761 121.213 200.761 121.948 200.761 122.585 200.663 123.271 200.467L124.497 207.721C123.762 208.009 123.075 208.107 122.193 208.107Z"/>
<path transform="matrix(4,0,0,-4,0,2284.876)" d="M144.74 188.557V199.09C144.74 205.17 141.654 208.205 134.891 208.205 132.095 208.205 128.714 207.52 125.776 206.296L127.441 201.446C129.792 202.28 131.898 202.771 133.566 202.771 136.314 202.771 137.345 201.789 137.345 198.649V197.422H135.284C127.98 197.422 124.111 194.29 124.111 188.655 124.111 183.798 127.049 180.518 131.8 180.518 134.499 180.518 137.099 181.546 138.863 184.288 139.94 181.842 141.85 180.91 144.691 180.665L146.259 185.616C145.181 186.057 144.74 186.743 144.74 188.557ZM134.057 185.904C132.438 185.904 131.555 187.081 131.555 189.288 131.555 191.986 132.929 193.213 135.971 193.213H137.345V188.356C136.609 186.787 135.48 185.904 134.057 185.904Z"/>
<path transform="matrix(4,0,0,-4,0,2284.876)" d="M153.712 220.949C151.116 220.949 149.304 219.088 149.304 216.688 149.304 214.239 151.116 212.377 153.712 212.377 156.308 212.377 158.072 214.239 158.072 216.688 158.072 219.088 156.308 220.949 153.712 220.949ZM149.941 181.351H157.4831V207.37149H149.941Z"/>
<path transform="matrix(4,0,0,-4,0,2284.876)" d="M176.751 208.205C173.76 208.205 171.601 206.833 169.688 204.285L169.15 207.372H162.587V181.351H170.129V199.291C171.307 201.349 172.533 202.526 173.858 202.526 175.036 202.526 175.772 201.839 175.772 199.585V181.351H183.314V200.614C183.314 205.314 180.816 208.205 176.751 208.205Z"/>
<path transform="matrix(4,0,0,-4,0,2284.876)" d="M191.943 220.949C189.347 220.949 187.535 219.088 187.535 216.688 187.535 214.239 189.347 212.377 191.943 212.377 194.539 212.377 196.303 214.239 196.303 216.688 196.303 219.088 194.539 220.949 191.943 220.949ZM188.172 181.351H195.7141V207.37149H188.172Z"/>
<path transform="matrix(4,0,0,-4,0,2284.876)" d="M214.982 208.205C211.991 208.205 209.832 206.833 207.919 204.285L207.381 207.372H200.818V181.351H208.36V199.291C209.538 201.349 210.764 202.526 212.089 202.526 213.267 202.526 214.003 201.839 214.003 199.585V181.351H221.545V200.614C221.545 205.314 219.047 208.205 214.982 208.205Z"/>
<path transform="matrix(4,0,0,-4,0,2284.876)" d="M246.591 211.342C243.751 209.676 240.861 208.058 235.762 208.156 229.243 208.205 225.031 204.631 225.031 198.699 225.031 195.217 226.304 193.012 229.292 191.25 227.628 190.075 226.404 188.309 226.404 186.345 226.404 183.456 228.509 181.253 234.045 181.253H236.841C239.244 181.253 240.324 180.272 240.324 178.555 240.324 176.788 239.294 175.464 235.467 175.464 231.495 175.464 230.662 176.543 230.662 178.849H223.904C223.904 173.799 226.254 170.519 235.37 170.519 243.556 170.519 247.866 173.897 247.866 179.045 247.866 183.359 244.34 186.492 238.46 186.492H235.271C233.064 186.492 232.671 187.229 232.671 188.162 232.671 188.8 232.966 189.39 233.456 189.732 234.241 189.537 235.124 189.439 236.106 189.439 242.379 189.439 246.199 193.061 246.199 198.11 246.199 201.543 244.681 203.505 241.645 204.878 244.632 204.878 246.836 205.172 248.356 205.857ZM235.762 203.212C237.921 203.212 239.049 201.986 239.049 198.896 239.049 195.609 237.872 194.285 235.762 194.285 233.702 194.285 232.475 195.757 232.475 198.797 232.475 201.838 233.702 203.212 235.762 203.212Z"/>
<path transform="matrix(4,0,0,-4,0,2284.876)" d="M272.425 216.145C265.857 216.145 262.723 212.278 262.723 208.014 262.723 204.877 263.801 202.867 267.082 199.582 262.967 196.689 261.008 194.091 261.008 190.022 261.008 184.386 265.464 180.518 271.935 180.518 275.711 180.518 278.895 181.693 281.784 184.288L285.264 180.518 291.586 183.603 286.146 188.796C287.714 191.247 289.087 194.238 290.214 197.964L284.136 199.631C283.597 196.836 282.96 194.63 282.176 192.669L276.299 198.994C279.825 201.543 282.176 204.19 282.176 208.211 282.176 212.768 278.65 216.145 272.425 216.145ZM272.523 211.25C274.142 211.25 275.075 210.221 275.075 208.063 275.075 205.808 274.191 204.534 272.278 202.769 270.462 204.877 269.873 206.004 269.873 208.014 269.873 210.172 270.855 211.25 272.523 211.25ZM271.248 195.464 278.111 187.914C276.74 186.59 275.271 185.904 273.358 185.904 270.659 185.904 268.893 187.521 268.893 190.365 268.893 192.473 269.58 193.993 271.248 195.464Z"/>
<path transform="matrix(4,0,0,-4,0,2284.876)" d="M318.054 216.145C309.968 216.145 303.993 210.123 303.993 198.405 303.993 186.443 309.724 180.518 318.103 180.518 322.465 180.518 325.847 182.575 328.004 184.876L324.475 189.188C322.661 187.717 320.995 186.59 318.593 186.59 314.721 186.59 312.172 189.875 312.172 198.405 312.172 207.132 314.721 210.319 318.544 210.319 320.603 210.319 322.269 209.436 323.936 208.064L327.661 212.424C325.063 214.774 322.122 216.145 318.054 216.145Z"/>
<path transform="matrix(4,0,0,-4,0,2284.876)" d="M340.31 208.205C333.055 208.205 328.647 203.113 328.647 194.386 328.647 185.316 333.104 180.518 340.31 180.518 347.564 180.518 352.021 185.708 352.021 194.337 352.021 203.505 347.515 208.205 340.31 208.205ZM340.31 202.624C342.959 202.624 344.234 200.466 344.234 194.337 344.234 188.355 342.959 186.051 340.31 186.051 337.71 186.051 336.434 188.257 336.434 194.386 336.434 200.368 337.71 202.624 340.31 202.624Z"/>
<path transform="matrix(4,0,0,-4,0,2284.876)" d="M374.715 188.557V199.09C374.715 205.17 371.629 208.205 364.866 208.205 362.07 208.205 358.689 207.52 355.751 206.296L357.416 201.446C359.767 202.28 361.873 202.771 363.541 202.771 366.289 202.771 367.32 201.789 367.32 198.649V197.422H365.259C357.955 197.422 354.086 194.29 354.086 188.655 354.086 183.798 357.024 180.518 361.775 180.518 364.474 180.518 367.074 181.546 368.838 184.288 369.915 181.842 371.825 180.91 374.666 180.665L376.234 185.616C375.156 186.057 374.715 186.743 374.715 188.557ZM364.032 185.904C362.413 185.904 361.53 187.081 361.53 189.288 361.53 191.986 362.904 193.213 365.946 193.213H367.32V188.356C366.584 186.787 365.455 185.904 364.032 185.904Z"/>
<path transform="matrix(4,0,0,-4,0,2284.876)" d="M390.595 208.205C383.344 208.205 378.789 202.721 378.789 194.141 378.789 185.463 383.295 180.518 390.693 180.518 393.977 180.518 396.575 181.693 398.683 183.603L395.399 188.061C393.83 186.982 392.703 186.443 391.134 186.443 388.488 186.443 386.674 188.061 386.674 194.19 386.674 200.466 388.341 202.428 391.183 202.428 392.703 202.428 394.075 201.888 395.546 200.711L398.683 205.023C396.428 207.128 393.879 208.205 390.595 208.205Z"/>
<path transform="matrix(4,0,0,-4,0,2284.876)" d="M415.451 208.205C412.705 208.205 410.693 207.029 408.829 204.579V218.498L401.286 217.714V181.351H408.829V199.34C410.006 201.349 411.233 202.526 412.558 202.526 413.735 202.526 414.471 201.839 414.471 199.585V181.351H422.013V200.614C422.013 205.314 419.516 208.205 415.451 208.205Z"/>
<path transform="matrix(4,0,0,-4,0,2284.876)" d="M430.643 220.949C428.047 220.949 426.235 219.088 426.235 216.688 426.235 214.239 428.047 212.377 430.643 212.377 433.239 212.377 435.002 214.239 435.002 216.688 435.002 219.088 433.239 220.949 430.643 220.949ZM426.872 181.351H434.41413V207.37149H426.872Z"/>
<path transform="matrix(4,0,0,-4,0,2284.876)" d="M453.682 208.205C450.691 208.205 448.532 206.833 446.619 204.285L446.08 207.372H439.518V181.351H447.06V199.291C448.237 201.349 449.464 202.526 450.789 202.526 451.966 202.526 452.702 201.839 452.702 199.585V181.351H460.245V200.614C460.245 205.314 457.747 208.205 453.682 208.205Z"/>
<path transform="matrix(4,0,0,-4,0,2284.876)" d="M485.291 211.342C482.45 209.676 479.561 208.058 474.462 208.156 467.942 208.205 463.731 204.631 463.731 198.699 463.731 195.217 465.004 193.012 467.991 191.25 466.327 190.075 465.103 188.309 465.103 186.345 465.103 183.456 467.209 181.253 472.744 181.253H475.54C477.944 181.253 479.023 180.272 479.023 178.555 479.023 176.788 477.993 175.464 474.167 175.464 470.195 175.464 469.361 176.543 469.361 178.849H462.603C462.603 173.799 464.954 170.519 474.07 170.519 482.255 170.519 486.565 173.897 486.565 179.045 486.565 183.359 483.039 186.492 477.159 186.492H473.971C471.763 186.492 471.371 187.229 471.371 188.162 471.371 188.8 471.665 189.39 472.156 189.732 472.941 189.537 473.824 189.439 474.805 189.439 481.079 189.439 484.899 193.061 484.899 198.11 484.899 201.543 483.381 203.505 480.344 204.878 483.332 204.878 485.536 205.172 487.055 205.857ZM474.462 203.212C476.62 203.212 477.749 201.986 477.749 198.896 477.749 195.609 476.571 194.285 474.462 194.285 472.401 194.285 471.175 195.757 471.175 198.797 471.175 201.838 472.401 203.212 474.462 203.212Z"/>
<path transform="matrix(4,0,0,-4,0,2284.876)" d="M94.9416 345.561C72.8913 345.561 60.0394 329.897 60.0394 301.105 60.0394 271.699 72.8913 256.525 94.9416 256.525 116.992 256.525 129.844 272.189 129.844 301.105 129.844 330.51 116.992 345.561 94.9416 345.561ZM94.9416 331.245C104.624 331.245 109.403 323.159 109.403 301.105 109.403 278.683 104.746 270.842 94.9416 270.842 85.3822 270.842 80.48 278.683 80.48 301.105 80.48 323.159 85.2597 331.245 94.9416 331.245Z"/>
<path transform="matrix(4,0,0,-4,0,2284.876)" d="M159.854 343.479H140.271V258.608H187.292L189.374 274.149H159.854Z"/>
<path transform="matrix(4,0,0,-4,0,2284.876)" d="M216.812 343.479H197.229V258.608H244.25L246.332 274.149H216.812Z"/>
<path transform="matrix(4,0,0,-4,0,2284.876)" d="M283.335 345.561C262.382 345.561 245.98 331 245.98 301.104 245.98 271.209 257.486 256.525 281.497 256.525 291.301 256.525 301.582 259.829 309.538 265.335V307.344H279.658L281.497 293.518H290.934V273.661C287.993 271.822 284.683 270.964 281.129 270.964 271.078 270.964 266.298 277.583 266.298 301.104 266.298 323.768 273.53 331.367 284.193 331.367 290.321 331.367 294.484 329.284 299.746 325.116L309.293 335.16C302.806 341.278 294.484 345.561 283.335 345.561Z"/>
<path transform="matrix(4,0,0,-4,0,2284.876)" d="M362.711 258.608H384.134L364.914 294.861C374.951 299.51 379.235 307.59 379.235 317.763 379.235 334.791 368.586 343.479 346.167 343.479H321.312V258.608H340.895V291.19H347.27ZM340.895 329.652H345.921C355.116 329.652 359.162 325.975 359.162 317.763 359.162 308.694 355.361 304.771 346.78 304.771H340.895Z"/>
<path transform="matrix(4,0,0,-4,0,2284.876)" d="M438.153 343.479H390.152V258.608H437.908V272.801H409.735V294.865H432.763V308.569H409.735V329.53H436.07Z"/>
<path transform="matrix(4,0,0,-4,0,2284.876)" d="M508.095 343.479H490.961V308.452C490.961 295.095 492.43 283.948 493.531 276.721L472.454 343.479H448.212V258.608H465.346V290.318C465.346 306.012 463.755 317.158 462.775 325.243L483.608 258.608H508.095Z"/>
<path transform="matrix(4,0,0,-4,0,2284.876)" d="M446.885 369.07H535.489V233.88H35.7305V369.07H380.15V357.463H47.3382C47.3382 336.7 47.3382 266.25 47.3382 245.488 101.97 245.488 523.881 245.488 523.881 245.488V357.463H446.885Z" fill-rule="evenodd"/>
<path transform="matrix(4,0,0,-4,0,2284.876)" d="M404.846 366.022C406.296 366.789 407.352 368.134 407.754 369.724 408.622 373.198 410.906 376.302 414.317 378.106 420.695 381.481 428.612 379.042 431.987 372.664 435.361 366.286 432.922 358.368 426.544 354.994 423.133 353.19 419.282 353.048 415.921 354.282 414.381 354.844 412.676 354.727 411.227 353.961 410.348 353.5 409.405 353 408.682 352.618 408.008 352.262 407.174 352.519 406.817 353.192 405.594 355.504 402.951 360.5 401.728 362.812 401.372 363.486 401.629 364.32 402.302 364.677 403.025 365.059 403.969 365.558 404.846 366.022ZM417.176 372.999C420.699 374.863 425.073 373.516 426.937 369.993 427.323 369.264 428.227 368.985 428.956 369.371 429.685 369.756 429.963 370.661 429.578 371.39 426.943 376.37 420.76 378.275 415.779 375.64 415.05 375.254 414.772 374.35 415.157 373.621 415.543 372.892 416.447 372.613 417.176 372.999Z" fill-rule="evenodd"/>
<path transform="matrix(4,0,0,-4,0,2284.876)" d="M404.84 351.6C405.481 351.939 405.726 352.735 405.387 353.376L401.134 361.415C400.795 362.056 399.999 362.301 399.358 361.962L398.778 361.654C398.137 361.315 397.892 360.52 398.231 359.879L402.484 351.84C402.823 351.199 403.618 350.954 404.259 351.293Z" fill-rule="evenodd"/>
<path transform="matrix(4,0,0,-4,0,2284.876)" d="M400.82 349.474C401.461 349.813 401.706 350.608 401.367 351.249L397.114 359.288C396.775 359.929 395.98 360.174 395.339 359.835L394.758 359.528C394.117 359.189 393.872 358.393 394.211 357.752L398.464 349.713C398.803 349.073 399.599 348.827 400.24 349.167Z" fill-rule="evenodd"/>
<path transform="matrix(4,0,0,-4,0,2284.876)" d="M396.083 350.168C396.23 350.246 396.341 350.38 396.39 350.539 396.439 350.699 396.423 350.871 396.345 351.019 395.8 352.048 394.642 354.237 394.098 355.266 394.02 355.413 393.886 355.524 393.727 355.573 393.567 355.622 393.395 355.606 393.248 355.528 392.99 355.391 392.671 355.222 392.351 355.053 391.966 354.85 391.678 354.502 391.55 354.086 391.422 353.67 391.465 353.22 391.668 352.836 392.072 352.073 392.565 351.14 392.969 350.377 393.172 349.993 393.52 349.704 393.936 349.576 394.352 349.448 394.802 349.491 395.186 349.694 395.506 349.863 395.825 350.032 396.083 350.168Z" fill-rule="evenodd"/>
<path transform="matrix(4,0,0,-4,0,2284.876)" d="M413.444 384.485 409.191 392.524C408.652 393.543 407.387 393.933 406.368 393.394 405.349 392.855 404.959 391.59 405.498 390.571L409.751 382.532C410.29 381.513 411.555 381.123 412.574 381.663 413.593 382.202 413.983 383.466 413.444 384.485Z" fill-rule="evenodd"/>
<path transform="matrix(4,0,0,-4,0,2284.876)" d="M437.851 373.428 445.89 377.681C446.909 378.22 447.299 379.485 446.76 380.504 446.221 381.523 444.956 381.913 443.937 381.374L435.898 377.121C434.879 376.582 434.489 375.317 435.028 374.298 435.567 373.279 436.832 372.889 437.851 373.428Z" fill-rule="evenodd"/>
<path transform="matrix(4,0,0,-4,0,2284.876)" d="M427.69 384.864 429.339 393.808C429.548 394.942 428.797 396.032 427.663 396.241 426.53 396.45 425.44 395.699 425.231 394.566L423.582 385.621C423.373 384.488 424.124 383.398 425.258 383.189 426.391 382.98 427.481 383.731 427.69 384.864Z" fill-rule="evenodd"/>
<path transform="matrix(4,0,0,-4,0,2284.876)" d="M420.576 386.444 419.616 390.532C419.353 391.655 418.228 392.352 417.105 392.088 415.983 391.825 415.286 390.7 415.549 389.578L416.509 385.489C416.773 384.367 417.898 383.67 419.02 383.933 420.142 384.197 420.839 385.322 420.576 386.444Z" fill-rule="evenodd"/>
<path transform="matrix(4,0,0,-4,0,2284.876)" d="M407.886 380.669 404.735 382.976C403.805 383.657 402.497 383.455 401.816 382.525 401.135 381.595 401.337 380.287 402.267 379.606L405.418 377.298C406.348 376.617 407.656 376.819 408.337 377.749 409.018 378.679 408.816 379.987 407.886 380.669Z" fill-rule="evenodd"/>
<path transform="matrix(4,0,0,-4,0,2284.876)" d="M433.66 380.352 436.498 382.987C437.342 383.771 437.391 385.094 436.607 385.938 435.822 386.783 434.5 386.832 433.655 386.048L430.818 383.413C429.973 382.628 429.924 381.306 430.708 380.461 431.493 379.616 432.816 379.567 433.66 380.352Z" fill-rule="evenodd"/>
</svg>
